<?xml version="1.0" encoding="UTF-8"?>
<svg version="1.1" xmlns="http://www.w3.org/2000/svg" width="48" height="48">
<path d="M0 0 C15.84 0 31.68 0 48 0 C48 15.84 48 31.68 48 48 C32.16 48 16.32 48 0 48 C0 32.16 0 16.32 0 0 Z " fill="#050506" transform="translate(0,0)"/>
<path d="M0 0 C0.1455841 4.54132797 0.23417333 9.08205341 0.3125 13.625 C0.35439453 14.91019531 0.39628906 16.19539063 0.43945312 17.51953125 C0.57761356 28.18551697 0.57761356 28.18551697 -2.33203125 31.8359375 C-6.11071511 34.90093144 -9.16676316 35.34734864 -14 35.28515625 C-17.20427446 34.82829681 -18.82420751 33.30378028 -21 31 C-23.26663874 27.97781502 -23.47146315 24.77684401 -23.39453125 21.03515625 C-22.68647817 17.38272403 -20.62465368 15.56216192 -18 13 C-15.04335481 11.5216774 -12.25770263 11.93967217 -9 12 C-9 14.97 -9 17.94 -9 21 C-10.65 21 -12.3 21 -14 21 C-13.67 22.65 -13.34 24.3 -13 26 C-11.68 25.67 -10.36 25.34 -9 25 C-9.00112793 24.38479492 -9.00225586 23.76958984 -9.00341797 23.13574219 C-8.99128742 20.33938718 -8.93362649 17.54575063 -8.875 14.75 C-8.87886719 13.29787109 -8.87886719 13.29787109 -8.8828125 11.81640625 C-8.80747735 9.08550688 -8.66981517 6.64999143 -8 4 C-3.61403509 0 -3.61403509 0 0 0 Z " fill="#DFE2E9" transform="translate(26,7)"/>
<path d="M0 0 C3.40312738 1.05875074 6.01353231 2.00902154 9 4 C9.43237305 6.15478516 9.43237305 6.15478516 9.51171875 8.7890625 C9.54716797 9.73007812 9.58261719 10.67109375 9.61914062 11.640625 C9.64169922 12.62546875 9.66425781 13.6103125 9.6875 14.625 C9.73874023 16.11386719 9.73874023 16.11386719 9.79101562 17.6328125 C9.87365657 20.08842906 9.94275127 22.54368141 10 25 C12.31 25.33 14.62 25.66 17 26 C17 28.97 17 31.94 17 35 C6.08270086 35.57236326 6.08270086 35.57236326 2 32 C-0.27071337 28.52667538 -0.23247721 25.57249276 -0.1953125 21.484375 C-0.18886719 20.23398437 -0.18242187 18.98359375 -0.17578125 17.6953125 C-0.15902344 16.39335937 -0.14226563 15.09140625 -0.125 13.75 C-0.11597656 12.43257812 -0.10695313 11.11515625 -0.09765625 9.7578125 C-0.07408533 6.50502538 -0.04118022 3.25260411 0 0 Z " fill="#E1E4EB" transform="translate(28,7)"/>
<path d="M0 0 C0.33 0 0.66 0 1 0 C1.05380578 2.79192205 1.09357669 5.5828141 1.125 8.375 C1.15013672 9.56609375 1.15013672 9.56609375 1.17578125 10.78125 C1.19335473 12.85492015 1.10335168 14.92883241 1 17 C0.34 17.66 -0.32 18.32 -1 19 C-3.125 18.625 -3.125 18.625 -5 18 C-5 16.35 -5 14.7 -5 13 C-3.35 13 -1.7 13 0 13 C0 10.03 0 7.06 0 4 C-1.65 4 -3.3 4 -5 4 C-5 3.67 -5 3.34 -5 3 C-3.35 3 -1.7 3 0 3 C0 2.01 0 1.02 0 0 Z " fill="#111112" transform="translate(17,15)"/>
</svg>
